<svg width="56" height="164" viewBox="0 0 56 164" fill="none" xmlns="http://www.w3.org/2000/svg">
<path d="M1.15596 155.822C0.258959 146.707 3.26296 136.603 9.34996 128.26C14.315 121.455 21.053 116 27.242 110.154C33.431 104.308 39.373 97.607 41.703 89.931C44.412 81.006 41.738 72.216 37.237 65.311C35.247 62.258 32.908 59.459 31.045 56.318C21.969 41.012 25.535 19.167 35.664 1" stroke="#EAB967" stroke-width="1.2198" stroke-miterlimit="10" stroke-linecap="round" stroke-linejoin="round"/>
<path d="M54.466 8.03802C55.363 17.153 52.359 27.257 46.272 35.6C41.307 42.405 34.569 47.86 28.38 53.706C22.191 59.552 16.249 66.253 13.919 73.93C11.21 82.855 13.884 91.645 18.385 98.55C20.375 101.602 22.714 104.402 24.577 107.542C33.653 122.848 30.087 144.693 19.958 162.86" stroke="#EAB967" stroke-width="1.2198" stroke-miterlimit="10" stroke-linecap="round" stroke-linejoin="round"/>
<path d="M54.026 15.982C46.831 13.791 39.6069 11.693 32.3579 9.68802" stroke="#EAB967" stroke-width="1.2198" stroke-miterlimit="10" stroke-linecap="round" stroke-linejoin="round"/>
<path d="M52.164 24.328C44.958 21.23 36.9759 20.177 29.8879 16.816" stroke="#EAB967" stroke-width="1.2198" stroke-miterlimit="10" stroke-linecap="round" stroke-linejoin="round"/>
<path d="M49.0899 30.873C43.6969 28.196 37.7349 26.913 31.8219 25.779C30.3739 25.501 28.893 25.22 27.611 24.491" stroke="#EAB967" stroke-width="1.2198" stroke-miterlimit="10" stroke-linecap="round" stroke-linejoin="round"/>
<path d="M44.9289 37.217C38.7409 35.793 32.5539 34.37 26.3669 32.946" stroke="#EAB967" stroke-width="1.2198" stroke-miterlimit="10" stroke-linecap="round" stroke-linejoin="round"/>
<path d="M38.268 44.375C34.254 43.253 30.8679 42.289 26.8539 41.167" stroke="#EAB967" stroke-width="1.2198" stroke-miterlimit="10" stroke-linecap="round" stroke-linejoin="round"/>
<path d="M36.7179 64.622C32.8919 62.969 26.6969 60.687 22.6949 59.523" stroke="#EAB967" stroke-width="1.2198" stroke-miterlimit="10" stroke-linecap="round" stroke-linejoin="round"/>
<path d="M40.74 73.295C37.687 71.42 34.1059 70.641 30.6029 69.892C26.2859 68.969 21.9689 68.046 17.6519 67.123" stroke="#EAB967" stroke-width="1.2198" stroke-miterlimit="10" stroke-linecap="round" stroke-linejoin="round"/>
<path d="M42.659 81.479C33.48 78.966 24.2479 76.649 14.9709 74.528" stroke="#EAB967" stroke-width="1.2198" stroke-miterlimit="10" stroke-linecap="round" stroke-linejoin="round"/>
<path d="M41.2829 91.035C31.9839 88.851 22.686 86.668 13.387 84.484" stroke="#EAB967" stroke-width="1.2198" stroke-miterlimit="10" stroke-linecap="round" stroke-linejoin="round"/>
<path d="M36.818 99.004C30.069 96.702 23.19 94.7811 16.226 93.2531" stroke="#EAB967" stroke-width="1.2198" stroke-miterlimit="10" stroke-linecap="round" stroke-linejoin="round"/>
<path d="M29.775 125.353C28.299 124.287 26.542 123.697 24.814 123.123C22.213 122.258 19.612 121.394 17.012 120.529" stroke="#EAB967" stroke-width="1.2198" stroke-miterlimit="10" stroke-linecap="round" stroke-linejoin="round"/>
<path d="M28.959 134.023C22.995 132.01 16.4299 129.995 10.4659 127.982" stroke="#EAB967" stroke-width="1.2198" stroke-miterlimit="10" stroke-linecap="round" stroke-linejoin="round"/>
<path d="M25.547 148.934C17.929 146.729 10.4279 144.244 2.80994 142.039" stroke="#EAB967" stroke-width="1.2198" stroke-miterlimit="10" stroke-linecap="round" stroke-linejoin="round"/>
<path d="M28.2639 142.044C20.8779 140.127 12.95 137.592 5.84396 134.811" stroke="#EAB967" stroke-width="1.2198" stroke-miterlimit="10" stroke-linecap="round" stroke-linejoin="round"/>
<path d="M22.5559 156.842C15.3449 155.289 8.23194 153.285 1.27194 150.844" stroke="#EAB967" stroke-width="1.2198" stroke-miterlimit="10" stroke-linecap="round" stroke-linejoin="round"/>
</svg>
