<svg width="46" height="46" viewBox="0 0 46 46" fill="none" xmlns="http://www.w3.org/2000/svg">
<g clip-path="url(#clip0_11_135)">
<path d="M40.9688 0.71875H5.03125C2.64952 0.71875 0.71875 2.64952 0.71875 5.03125V40.9688C0.71875 43.3505 2.64952 45.2812 5.03125 45.2812H40.9688C43.3505 45.2812 45.2812 43.3505 45.2812 40.9688V5.03125C45.2812 2.64952 43.3505 0.71875 40.9688 0.71875Z" fill="#5B79B8"/>
<path d="M40.9688 0.71875H5.03125C3.8875 0.71875 2.7906 1.1731 1.98185 1.98185C1.1731 2.7906 0.71875 3.8875 0.71875 5.03125V12.2188C0.71875 16.4125 2.38471 20.4345 5.35012 23.3999C8.31554 26.3653 12.3375 28.0312 16.5312 28.0312H29.4688C33.6625 28.0312 37.6845 26.3653 40.6499 23.3999C43.6153 20.4345 45.2812 16.4125 45.2812 12.2188V5.03125C45.2812 3.8875 44.8269 2.7906 44.0181 1.98185C43.2094 1.1731 42.1125 0.71875 40.9688 0.71875Z" fill="#6688CF"/>
<path d="M40.9688 0.71875H5.03125C3.8875 0.71875 2.7906 1.1731 1.98185 1.98185C1.1731 2.7906 0.71875 3.8875 0.71875 5.03125V7.90625C0.71875 6.7625 1.1731 5.6656 1.98185 4.85685C2.7906 4.0481 3.8875 3.59375 5.03125 3.59375H40.9688C42.1125 3.59375 43.2094 4.0481 44.0181 4.85685C44.8269 5.6656 45.2812 6.7625 45.2812 7.90625V5.03125C45.2812 3.8875 44.8269 2.7906 44.0181 1.98185C43.2094 1.1731 42.1125 0.71875 40.9688 0.71875Z" fill="#739AE8"/>
<path d="M40.9688 42.4062H5.03125C3.8875 42.4062 2.7906 41.9519 1.98185 41.1431C1.1731 40.3344 0.71875 39.2375 0.71875 38.0938V40.9688C0.71875 42.1125 1.1731 43.2094 1.98185 44.0181C2.7906 44.8269 3.8875 45.2812 5.03125 45.2812H40.9688C42.1125 45.2812 43.2094 44.8269 44.0181 44.0181C44.8269 43.2094 45.2812 42.1125 45.2812 40.9688V38.0938C45.2812 39.2375 44.8269 40.3344 44.0181 41.1431C43.2094 41.9519 42.1125 42.4062 40.9688 42.4062Z" fill="#4462A3"/>
<path d="M21.5625 42.4062H28.75V45.2812H21.5625V42.4062Z" fill="#AEB2D4"/>
<path d="M30.9062 15.0938H38.8125V7.90625H30.1875C27.9 7.90625 25.7062 8.81495 24.0887 10.4325C22.4712 12.05 21.5625 14.2438 21.5625 16.5312V20.8438H15.8125V28.0312H21.5625V42.4062H28.75V28.0312H37.375L38.8125 20.8438H28.75V17.25C28.75 16.6781 28.9772 16.1297 29.3816 15.7253C29.7859 15.3209 30.3344 15.0938 30.9062 15.0938Z" fill="#FDFEF9"/>
<path d="M15.8125 28.0312H21.5625V30.1875H15.8125V28.0312Z" fill="#4462A3"/>
<path d="M28.75 28.0312V30.1875H37.375L38.8125 23H38.3813L37.375 28.0312H28.75Z" fill="#4462A3"/>
<path d="M28.75 17.25V19.4062C28.75 18.8344 28.9772 18.2859 29.3816 17.8816C29.7859 17.4772 30.3344 17.25 30.9062 17.25H38.8125V15.0938H30.9062C30.3344 15.0938 29.7859 15.3209 29.3816 15.7253C28.9772 16.1297 28.75 16.6781 28.75 17.25Z" fill="#4462A3"/>
<path d="M30.9062 15.8125H38.8125C39.0031 15.8125 39.1859 15.7368 39.3207 15.602C39.4555 15.4672 39.5312 15.2844 39.5312 15.0938V7.90625C39.5312 7.71563 39.4555 7.53281 39.3207 7.39802C39.1859 7.26323 39.0031 7.1875 38.8125 7.1875H30.1875C28.5478 7.19084 26.9377 7.62398 25.5176 8.44372C24.0976 9.26346 22.9173 10.4412 22.0944 11.8594L23.3385 12.5781C24.035 11.378 25.0339 10.3815 26.2356 9.68787C27.4374 8.99425 28.7999 8.62778 30.1875 8.625H38.0937V14.375H30.9062C30.1437 14.375 29.4125 14.6779 28.8733 15.2171C28.3341 15.7562 28.0312 16.4875 28.0312 17.25V20.8438C28.0312 21.0344 28.107 21.2172 28.2418 21.352C28.3765 21.4868 28.5594 21.5625 28.75 21.5625H37.9356L36.7856 27.3125H28.75C28.5594 27.3125 28.3765 27.3882 28.2418 27.523C28.107 27.6578 28.0312 27.8406 28.0312 28.0312V40.25H29.4687V28.75H37.375C37.5407 28.75 37.7013 28.6928 37.8297 28.588C37.958 28.4833 38.0462 28.3373 38.0794 28.175L39.5169 20.9875C39.5382 20.8831 39.536 20.7752 39.5105 20.6717C39.485 20.5682 39.4367 20.4717 39.3693 20.3891C39.3019 20.3066 39.217 20.24 39.1207 20.1943C39.0243 20.1487 38.9191 20.125 38.8125 20.125H29.4687V17.25C29.4687 16.8688 29.6202 16.5031 29.8898 16.2335C30.1594 15.964 30.525 15.8125 30.9062 15.8125Z" fill="black"/>
<path d="M20.9731 14.9752L22.3905 15.2124C22.4661 14.7646 22.5798 14.3241 22.7305 13.8957L21.3756 13.417C21.1962 13.9237 21.0616 14.4451 20.9731 14.9752Z" fill="black"/>
<path d="M44.5625 40.9688C44.5614 41.9215 44.1824 42.8349 43.5087 43.5087C42.8349 44.1824 41.9215 44.5614 40.9688 44.5625H29.4688V41.6875H28.0312V44.5625H22.2812V28.0312C22.2812 27.8406 22.2055 27.6578 22.0707 27.523C21.9359 27.3882 21.7531 27.3125 21.5625 27.3125H16.5312V21.5625H21.5625C21.7531 21.5625 21.9359 21.4868 22.0707 21.352C22.2055 21.2172 22.2812 21.0344 22.2812 20.8438V16.5312H20.8438V20.125H15.8125C15.6219 20.125 15.4391 20.2007 15.3043 20.3355C15.1695 20.4703 15.0938 20.6531 15.0938 20.8438V28.0312C15.0938 28.2219 15.1695 28.4047 15.3043 28.5395C15.4391 28.6743 15.6219 28.75 15.8125 28.75H20.8438V44.5625H5.03125C4.07848 44.5614 3.16506 44.1824 2.49135 43.5087C1.81763 42.8349 1.43864 41.9215 1.4375 40.9688V5.03125C1.43864 4.07848 1.81763 3.16506 2.49135 2.49135C3.16506 1.81763 4.07848 1.43864 5.03125 1.4375H6.46875V0H5.03125C3.69735 0.00152185 2.41851 0.532087 1.4753 1.4753C0.532087 2.41851 0.00152185 3.69735 0 5.03125L0 40.9688C0.00152185 42.3027 0.532087 43.5815 1.4753 44.5247C2.41851 45.4679 3.69735 45.9985 5.03125 46H40.9688C42.3027 45.9985 43.5815 45.4679 44.5247 44.5247C45.4679 43.5815 45.9985 42.3027 46 40.9688V39.5312H44.5625V40.9688Z" fill="black"/>
<path d="M40.9688 0H10.7812V1.4375H40.9688C44.096 1.4375 44.5625 5.49053 44.5625 7.90625V38.0938H46V7.90625C46 0.7705 42.4781 0 40.9688 0Z" fill="black"/>
<path d="M7.90625 0H9.34375V1.4375H7.90625V0Z" fill="black"/>
</g>
<defs>
<clipPath id="clip0_11_135">
<rect width="46" height="46" fill="white"/>
</clipPath>
</defs>
</svg>
