
<svg width="1440" height="258" viewBox="0 0 1440 258" fill="none" xmlns="http://www.w3.org/2000/svg">
<path fill-rule="evenodd" clip-rule="evenodd" d="M-32 258V47.3101L-26.5836 43.9363C-26.5836 43.9363 -26.5835 43.9363 -23.8549 42.8225C-21.1458 41.7093 -19.7822 40.5625 -19.7822 40.5625C-19.7822 40.5625 -19.7822 40.5625 -17.0731 41.7093C-14.3657 42.8225 -14.3657 41.7093 -9.60083 42.8225L-5.5282 41.7093C-5.5282 41.7093 -5.5282 41.7093 -3.49194 41.7093C-1.45569 41.7093 -0.782471 39.4487 -0.782471 39.4487H1.92468L8.03345 40.5625C8.03345 40.5625 8.03357 40.5625 10.7622 41.7093C13.4718 42.8225 10.7621 41.7093 12.7983 43.9363C14.8347 46.197 14.8348 49.5701 14.8348 49.5701L20.2512 56.3184L23.6532 60.8053L28.3969 64.1798C28.3969 64.1798 28.3969 64.1798 33.1617 64.1798C37.9072 64.1798 33.1617 64.1798 37.9072 65.3266C42.6509 66.4397 37.9072 65.3266 40.6146 69.8135C41.4902 71.2641 41.7966 71.7705 41.8584 71.9381C41.7543 71.8708 41.2067 71.2641 41.9797 73.1873C43.3428 76.5611 46.7235 73.1873 46.7235 73.1873H51.4884C51.4884 73.1873 51.4885 73.1873 52.1614 76.5611C52.8325 79.9356 55.561 81.0488 55.561 81.0488L69.8152 67.5529L73.1954 63.066L75.924 59.6922L78.6331 54.0577H91.5225C91.5225 54.0577 91.5223 54.0577 94.9238 52.9446C98.3231 51.8307 94.9238 52.9446 99.6676 45.0831L103.069 42.8225L105.777 41.7093L109.178 36.0749L115.958 32.7011C115.958 32.7011 122.759 29.3273 124.796 30.4411C126.832 31.588 129.541 29.3273 129.541 29.3273L135.65 21.4659H143.795C143.795 21.4659 147.867 21.4659 149.904 21.4659C151.94 21.4659 153.304 20.3191 153.304 20.3191L158.049 18.0928L162.795 19.2059L166.867 20.3191C166.867 20.3191 166.867 20.319 169.594 23.6928C172.303 27.0666 174.34 23.6928 174.34 23.6928L177.739 19.2059C177.739 19.2059 177.739 19.2059 179.776 20.3191C180.794 20.8928 181.976 22.0396 182.913 23.0174C183.848 23.9966 184.521 24.8404 184.521 24.8404C184.521 24.8404 184.521 24.8403 187.23 30.4411C189.957 36.0749 187.23 30.4411 188.594 36.0749C188.594 36.0749 191.994 34.9618 194.03 36.0749C196.066 37.1887 199.449 31.588 199.449 31.588C199.449 31.588 199.448 31.588 201.485 32.7011C202.503 33.2412 203.357 34.9281 203.947 36.481C204.539 38.0318 204.884 39.4487 204.884 39.4487C204.884 39.4487 204.884 39.4487 207.594 43.9363C210.322 48.4569 211.666 45.0831 211.666 45.0831L215.739 41.7093C215.739 41.7093 215.739 41.7093 217.775 42.8225C219.811 43.9363 221.174 42.8225 224.576 45.0831H227.284L233.393 41.7093C233.393 41.7093 237.465 40.5625 240.867 40.5625C244.247 40.5625 240.867 40.5625 242.903 42.8225C244.939 45.0831 246.976 42.8225 246.976 42.8225H250.356L252.392 38.3355L254.428 33.8149C254.428 33.8149 254.428 33.8149 257.157 32.7011C259.865 31.588 257.157 32.7011 260.537 32.7011C263.937 32.7011 263.266 25.9535 263.266 25.9535C263.266 25.9535 263.266 25.9535 265.302 24.8404C267.339 23.6929 268.683 27.0667 268.683 27.0667L272.082 28.2142L274.791 30.4411C274.791 30.4411 274.791 30.4411 276.828 32.7011C278.864 34.9617 277.52 37.1887 277.52 37.1887L282.264 38.3355L287.01 39.4487L291.774 40.5625C291.774 40.5625 291.775 40.5625 294.482 41.7093C297.191 42.8225 295.847 46.197 295.847 46.197C295.847 46.197 295.847 46.197 296.518 49.5701C297.191 52.9446 301.264 50.6839 301.264 50.6839L301.956 46.197L306.7 45.0831L309.409 43.9363L314.845 38.3355C314.845 38.3355 314.845 38.3356 316.881 39.4487C318.917 40.5625 320.282 38.3355 320.282 38.3355L323.663 31.588C323.663 31.588 329.772 30.4411 333.845 30.4411C337.917 30.4411 333.845 30.4411 337.917 30.4411L338.61 25.9535L350.377 62.8729C350.377 62.8729 353.105 62.8729 355.142 62.8729C357.178 62.8729 357.849 62.8729 357.849 62.8729H361.251C361.251 62.8729 361.25 62.8729 363.287 62.8729C365.323 62.8729 366.667 63.9867 368.703 63.9867C370.74 63.9867 371.432 68.5073 371.432 68.5073C371.432 68.5073 371.432 68.5073 373.468 68.5073C375.505 68.5073 375.954 50.9711 375.954 50.9711L380.25 68.5073L384.994 63.9867L391.103 58.3859L393.102 55.9143C393.585 55.3165 394.123 54.85 394.695 54.5325L397.026 53.2387C397.607 52.9157 398.217 52.7515 398.83 52.7515H405.357C405.357 52.7515 405.357 52.7515 408.085 52.7515C410.795 52.7515 411.466 50.4908 411.466 50.4908L414.464 47.1878C415.171 46.4079 415.975 45.9015 416.816 45.705L420.303 44.89L424.211 43.7893C424.321 43.759 424.432 43.7329 424.542 43.713L430.175 42.6864C430.382 42.6486 430.589 42.6301 430.797 42.6301H433.864C434.325 42.6301 434.784 42.5367 435.231 42.3532L436.19 41.9595C436.901 41.6667 437.572 41.1493 438.164 40.4347L443.245 34.3097C444.216 33.1388 445.386 32.508 446.587 32.508H447.449H449.545C449.979 32.508 450.401 32.4276 450.824 32.2675C451.98 31.8284 454.469 30.7888 456.957 29.1342C460.337 26.8743 456.957 29.1342 461.703 28.0211C463.291 27.6507 463.82 27.5146 463.881 27.5146C463.656 27.615 462.557 28.0211 463.739 28.0211L470.909 29.0896C471.111 29.1198 471.31 29.1672 471.508 29.2325L473.487 29.8839C474.216 30.1244 474.967 30.125 475.696 29.8866C477.167 29.4049 478.694 29.9066 479.943 31.2829L481.578 33.0852C481.902 33.4418 482.248 33.7428 482.609 33.9826L482.641 34.0046C484.405 35.1775 485.698 37.735 486.086 40.8181L489.296 73.1111C489.296 73.1111 492.676 71.9979 495.405 71.9979C498.114 71.9979 495.405 71.9979 498.785 73.1111L508.967 56.2421H513.732L516.441 51.7552L519.148 48.3807L523.913 43.86L531.366 41.6331C531.366 41.6331 531.366 41.6331 536.131 41.6331C540.876 41.6331 536.131 41.6331 538.167 43.86C540.204 46.1207 538.167 43.86 541.548 49.4945L543.584 43.86L546.312 41.6331L548.349 35.9986C548.349 35.9986 548.349 35.9986 550.385 34.8834C552.421 33.7387 553.765 33.7387 557.838 34.8834H560.567L564.639 35.9986L567.349 34.8834L570.748 30.3649L574.13 29.251L578.203 31.5103L580.93 34.8834L584.312 31.5103L588.384 26.9904L593.148 21.3882L597.22 20.2428C597.22 20.2428 597.22 20.2428 599.256 20.2428C601.293 20.2428 604.675 24.762 604.675 24.762L607.404 25.8772C607.404 25.8772 607.404 25.8772 609.44 26.9904C611.476 28.1358 612.82 25.8772 612.82 25.8772L614.183 21.3882L614.857 16.869L618.256 13.4952L623.002 14.6406C623.002 14.6406 623.002 14.6406 625.038 15.7558C627.074 16.869 628.438 19.1296 628.438 19.1296L631.147 24.762L633.876 28.1358L636.583 26.9904V22.5034L637.948 18.0144L643.365 12.382C643.365 12.382 643.365 12.382 646.093 12.382C648.801 12.382 649.474 11.2668 649.474 11.2668H652.873L655.583 10.1214C655.583 10.1214 655.583 10.1214 657.619 11.2668C659.655 12.382 662.384 10.1214 662.384 10.1214C662.384 10.1214 664.42 5.63445 667.801 4.51923C667.801 4.51923 670.529 4.51923 673.236 4.51923C675.946 4.51923 680.018 2.25996 680.018 2.25996C680.018 2.25996 683.418 0 686.127 0C688.856 0 689.527 3.37379 689.527 3.37379C689.527 3.37379 689.527 3.37379 693.6 3.37379C697.672 3.37379 693.6 3.37379 696.309 4.51923C699.037 5.63445 701.074 1.14545 701.074 1.14545C701.074 1.14545 701.074 1.14545 703.11 2.25996C705.146 3.37379 706.49 3.37379 706.49 3.37379L709.89 5.63445L713.963 6.7476L716.672 9.00757L719.4 12.382L722.109 14.6406L724.817 19.1296L728.217 23.6173C728.217 23.6173 733.655 24.762 735.691 25.8772C737.727 26.9904 739.071 24.762 739.071 24.762H746.544C746.544 24.762 746.545 24.762 748.58 25.8772C750.617 26.9904 753.325 26.9904 753.325 26.9904L757.398 28.1358C757.398 28.1358 757.398 28.1358 759.434 30.3649C761.471 32.6248 760.799 34.8834 760.799 34.8834L764.199 39.3724L766.907 41.6331L770.308 42.7462L776.417 47.2338L786.598 50.6077C786.598 50.6077 786.598 50.6077 789.307 51.7552C792.015 52.8683 796.088 55.1283 796.088 55.1283L802.197 57.3553H807.634L814.415 56.2421C814.415 56.2421 814.415 56.2421 816.451 57.3553C818.487 58.5027 819.18 53.9814 819.18 53.9814H821.888C821.888 53.9814 821.888 53.9815 823.924 55.1283C825.96 56.2421 825.96 61.8765 825.96 61.8765L828.669 66.3635L832.069 67.4773C832.069 67.4773 832.069 67.4773 834.106 66.3635C836.142 65.2503 836.814 61.8765 836.814 61.8765C836.814 61.8765 836.814 61.8765 840.214 61.8765C843.615 61.8765 843.615 61.8765 843.615 61.8765L846.995 60.729C846.995 60.729 846.995 60.729 850.396 59.6159L853.797 56.2421C853.797 56.2421 853.797 56.2421 857.177 58.5027C860.577 60.729 857.177 58.5027 860.577 64.1035L864.65 62.9897H868.723L876.196 64.1035L878.904 66.3635L885.013 67.4773L887.722 66.3635C887.722 66.3635 887.722 66.3635 889.759 66.3635C891.795 66.3635 892.487 64.1035 895.195 65.2503C896.091 65.6207 897.007 65.7554 897.801 65.7554C899.41 65.7554 900.632 65.2503 900.632 65.2503C900.632 65.2503 900.632 65.2503 902.668 68.6241C904.704 71.9979 906.741 67.4773 906.741 67.4773L910.122 64.1035L914.886 60.729C914.886 60.729 917.595 59.6159 920.995 62.9897L924.376 68.6241H927.104L930.485 61.8765L936.594 60.729C936.594 60.729 936.594 60.729 938.63 61.8765C940.667 62.9897 942.703 64.1035 942.703 64.1035L945.431 66.3635L948.812 67.4773L952.212 68.6241C952.212 68.6241 952.212 68.6241 956.285 69.7373C956.285 69.7373 963.758 68.6241 966.466 69.7373C969.175 70.8511 966.466 69.7373 967.831 69.7373C969.175 69.7373 967.831 69.7373 972.575 69.7373H979.356L982.757 67.4773L987.501 64.1035C987.501 64.1035 987.501 64.1035 990.23 65.2503C992.938 66.3635 992.938 66.3635 992.938 66.3635L995.646 62.9897L997.011 58.5027L1000.41 53.9814L1004.48 49.4945L1006.52 43.86L1010.59 39.3724L1013.97 37.1124L1016.7 35.9986L1018.05 31.5103V26.9904L1020.77 23.6173L1024.85 24.762H1029.59L1032.99 28.1358C1032.99 28.1358 1032.99 28.1358 1035.03 30.3649C1037.07 32.6248 1040.45 34.8834 1040.45 34.8834L1044.52 31.5103L1047.92 28.1358L1052.66 23.6173L1056.74 22.5034L1060.14 23.6173L1064.21 22.5034C1064.21 22.5034 1064.21 22.5034 1068.28 25.8772C1068.3 25.8772 1068.3 25.9095 1068.32 25.9095C1068.32 25.9095 1068.34 25.9095 1068.38 25.9446C1068.57 26.0449 1069.06 26.2812 1070.32 26.9904C1072.35 28.1358 1073.72 29.251 1073.72 29.251H1081.86L1083.9 35.9986C1083.9 35.9986 1083.9 35.9986 1088.64 38.2593C1091.01 39.3724 1090.6 59.229 1091.37 60.0728C1092.12 60.9159 1092.31 61.4897 1092.31 61.4897C1092.31 61.4897 1092.31 61.4897 1097.05 63.7504C1101.8 65.9766 1097.05 63.7504 1099.09 63.7504C1101.12 63.7504 1101.8 63.7504 1101.8 63.7504C1101.8 63.7504 1101.8 63.7504 1105.87 63.7504H1107.78C1107.78 63.7504 1108.01 63.7504 1109.27 63.7504H1116.05L1121.57 81.4473L1124.96 78.0735C1124.96 78.0735 1124.96 78.0735 1126.99 78.0735C1129.03 78.0735 1129.72 78.0735 1129.72 78.0735C1129.72 78.0735 1129.72 78.0735 1131.76 80.3342C1133.79 82.5948 1135.14 84.8211 1135.14 84.8211C1135.14 84.8211 1135.14 84.8211 1137.17 84.8211C1139.21 84.8211 1140.57 80.3342 1140.57 80.3342L1143.97 73.5866L1146.68 72.4714L1148.72 66.839L1152.79 61.2045H1157.54C1157.54 61.2045 1164.66 90.0515 1168.06 90.0515L1173.5 83.3039C1173.5 83.3039 1173.5 83.3039 1175.53 83.3039C1176.55 83.3039 1177.57 83.5754 1178.32 83.877C1179.1 84.147 1179.61 84.4185 1179.61 84.4185C1179.61 84.4185 1179.61 84.4185 1181.64 85.5323C1183.68 86.6777 1184.35 88.9061 1184.35 88.9061L1187.06 86.6777L1190.46 82.1585V76.5563L1191.04 74.642C1191.52 73.0458 1192.51 72.0371 1193.58 72.0371C1194.2 72.0371 1194.8 72.369 1195.29 72.9833L1197.24 75.4109L1202.68 74.2971L1205.39 68.6626L1208.12 66.4349L1211.5 60.8019L1216.26 59.6867L1219.64 60.8019C1223.04 61.915 1219.64 60.8019 1223.71 60.8019L1228.48 57.426H1232.55L1237.97 58.5412L1240.7 54.0522L1242.73 52.9391C1244.77 51.7936 1245.44 52.9391 1245.44 52.9391H1248.84L1252.22 51.7936L1255.62 48.4198L1256.29 41.6722L1259.02 36.0694L1260.37 30.4356C1260.37 30.4356 1260.37 30.4356 1262.4 29.3218C1264.26 28.2774 1267.81 27.2577 1268.42 27.0866C1268.49 27.068 1268.55 27.0474 1268.62 27.0199L1271.24 25.948L1277.35 30.4356L1280.06 32.6963L1282.04 27.2089C1282.08 27.1113 1282.11 27.0103 1282.14 26.9079L1283.46 22.5742L1285.5 16.9398L1289.57 12.4528L1292.95 11.306H1299.75L1303.82 12.4528L1308.06 10.0994C1308.35 9.88708 1309.13 9.36693 1311.27 7.93221L1312.64 2.33073L1315.35 1.1839C1318.08 0.0707703 1318.08 2.33073 1318.08 2.33073L1322.15 3.44456L1324.19 4.55841C1326.22 5.70523 1324.18 4.5584 1328.93 7.9315C1333.68 11.306 1328.93 7.93152 1330.97 11.306C1333 14.6798 1330.97 11.306 1335.71 18.0536L1339.11 19.2004H1342.51L1346.58 18.0536C1346.58 18.0536 1349.29 15.8266 1351.33 15.8266C1353.37 15.8266 1355.4 16.9398 1355.4 16.9398L1358.11 19.2004C1360.84 21.4274 1363.55 19.2004 1363.55 19.2004C1363.55 19.2004 1363.55 19.2004 1365.58 20.3135C1366.93 21.0515 1367.99 21.3003 1368.54 21.3841C1368.86 21.4322 1369.16 21.5586 1369.45 21.7737L1375.09 25.948L1379.17 32.6963L1381.87 34.9246L1386.62 33.8094L1392.33 31.6972C1392.61 31.5928 1392.9 31.5529 1393.19 31.601C1394.11 31.7542 1396.29 32.3795 1398.84 34.9246L1401.57 37.1832H1413.09H1417.86L1421.24 39.4439H1424.64L1427.35 38.2984H1432.11C1434.15 38.2984 1434.82 39.4439 1436.85 39.4439C1438.89 39.4439 1438.22 43.9308 1438.22 43.9308L1445 45.046V258L-32 258Z" fill="#181818"/>
</svg>
