<svg width="46" height="46" viewBox="0 0 46 46" fill="none" xmlns="http://www.w3.org/2000/svg">
<path d="M38.3525 0H7.6475C3.4239 0 0 3.4239 0 7.6475V38.3525C0 42.5761 3.4239 46 7.6475 46H38.3525C42.5761 46 46 42.5761 46 38.3525V7.6475C46 3.4239 42.5761 0 38.3525 0Z" fill="black"/>
<path d="M37.3378 19.2363V13.1022C29.3195 12.7636 29.0615 5.47723 29.0615 4.79256V4.74097H22.864V28.6315C22.8633 29.6638 22.5371 30.6697 21.9317 31.506C21.3264 32.3423 20.4727 32.9663 19.4922 33.2894C18.5117 33.6125 17.4543 33.6182 16.4703 33.3056C15.4864 32.9931 14.6261 32.3782 14.0118 31.5484C13.3976 30.7187 13.0606 29.7164 13.0488 28.6841C13.0371 27.6518 13.3512 26.642 13.9464 25.7985C14.5417 24.9551 15.3878 24.3208 16.3643 23.9859C17.3409 23.651 18.3982 23.6326 19.3858 23.9333V17.6068C18.911 17.5459 18.4328 17.5154 17.9541 17.5155C15.7556 17.5155 13.6064 18.1674 11.7784 19.3888C9.95035 20.6103 8.52558 22.3464 7.68423 24.3776C6.84289 26.4087 6.62276 28.6438 7.05167 30.8001C7.48058 32.9564 8.53928 34.9371 10.0939 36.4917C11.6485 38.0463 13.6292 39.105 15.7855 39.5339C17.9418 39.9628 20.1768 39.7427 22.208 38.9013C24.2392 38.06 25.9753 36.6352 27.1967 34.8072C28.4182 32.9792 29.0701 30.83 29.0701 28.6315C29.0701 28.4756 29.0701 28.3208 29.0594 28.1671V16.403C31.9131 19.0138 37.3378 19.2363 37.3378 19.2363Z" fill="#00F6EF"/>
<path d="M39.1629 20.7495V14.6122C31.1435 14.2736 30.8866 6.98724 30.8866 6.30257V6.25098H24.6891V30.1415C24.6887 31.1739 24.3626 32.1799 23.7574 33.0163C23.1522 33.8527 22.2986 34.477 21.3181 34.8003C20.3376 35.1235 19.2801 35.1294 18.2961 34.8169C17.3121 34.5045 16.4517 33.8897 15.8373 33.0599C15.2229 32.2302 14.8858 31.2279 14.874 30.1956C14.8621 29.1632 15.1762 28.1534 15.7714 27.3099C16.3666 26.4663 17.2127 25.8319 18.1893 25.497C19.1659 25.1621 20.2233 25.1437 21.2109 25.4444V19.1168C20.735 19.0572 20.2557 19.0281 19.776 19.0298C17.5774 19.0304 15.4284 19.683 13.6007 20.905C11.773 22.127 10.3488 23.8636 9.50803 25.8951C8.66731 27.9266 8.44789 30.1618 8.87751 32.318C9.30714 34.4742 10.3665 36.4545 11.9217 38.0087C13.4768 39.5628 15.4579 40.6208 17.6144 41.049C19.7709 41.4771 22.0059 41.2562 24.0369 40.4141C26.0678 39.572 27.8034 38.1466 29.0242 36.318C30.245 34.4895 30.8961 32.3401 30.8952 30.1415C30.8952 29.9856 30.8952 29.8309 30.8845 29.6772V17.913C33.7382 20.5238 39.1629 20.7495 39.1629 20.7495Z" fill="white"/>
<path d="M29.2153 6.25098C29.5141 7.87829 30.3868 10.4224 32.931 11.9111C30.9866 9.6464 30.8888 6.72391 30.8888 6.30257V6.25098H29.2153Z" fill="#FF004F"/>
<path d="M39.1629 20.7495V14.6122C38.549 14.5897 37.938 14.5178 37.3357 14.3972V19.2286C37.3357 19.2286 31.9109 19.0061 29.0594 16.3953V28.1563C29.0658 28.31 29.0701 28.4647 29.0701 28.6206C29.0699 30.6318 28.524 32.6052 27.4908 34.3306C26.4575 36.056 24.9756 37.4689 23.2028 38.4186C21.43 39.3683 19.4328 39.8193 17.4239 39.7236C15.415 39.6279 13.4697 38.989 11.7953 37.875C13.3352 39.4653 15.3149 40.5596 17.4808 41.0176C19.6466 41.4756 21.8998 41.2764 23.9517 40.4456C26.0036 39.6148 27.7607 38.1902 28.9978 36.3544C30.2348 34.5186 30.8956 32.3552 30.8952 30.1415C30.8952 29.9856 30.8952 29.8309 30.8845 29.6772V17.913C33.7382 20.5238 39.1629 20.7495 39.1629 20.7495Z" fill="#FF004F"/>
<path d="M19.3858 23.9236C18.2024 23.5627 16.9264 23.6617 15.8129 24.2009C14.6993 24.7401 13.8304 25.6798 13.3797 26.832C12.929 27.9842 12.9298 29.264 13.3819 30.4157C13.8341 31.5673 14.7042 32.5058 15.8184 33.0436C15.2095 32.2119 14.8778 31.2097 14.8701 30.179C14.8625 29.1483 15.1794 28.1412 15.7759 27.3006C16.3725 26.46 17.2184 25.8284 18.1938 25.4953C19.1692 25.1621 20.2248 25.1444 21.2109 25.4445V19.1169C20.7349 19.0573 20.2556 19.0282 19.776 19.0298C19.6438 19.0298 19.5137 19.0299 19.3826 19.0374L19.3858 23.9236Z" fill="#FF004F"/>
</svg>
