<svg width="46" height="46" viewBox="0 0 46 46" fill="none" xmlns="http://www.w3.org/2000/svg">
<g clip-path="url(#clip0_11_153)">
<path d="M45.6378 34.3009C45.6378 40.5308 40.5307 45.6379 34.3008 45.6379H11.6992C5.46927 45.6379 0.362183 40.567 0.362183 34.3009V11.7355C0.362183 5.50561 5.46927 0.362305 11.6992 0.362305H34.3008C40.5307 0.362305 45.6378 5.46939 45.6378 11.7355V34.3009Z" fill="#FF312E"/>
<path d="M36.8 17.1324C36.8 17.1324 36.5465 15.104 35.7134 14.1985C34.6268 13.0395 33.4315 12.967 32.8882 12.8946C28.904 12.6048 23 12.5686 23 12.5686C23 12.5686 17.0599 12.6048 13.1118 12.8946C12.5685 12.967 11.3733 13.0032 10.2866 14.1623C9.45357 15.0678 9.23624 17.0962 9.23624 17.0962C9.23624 17.0962 9.01892 19.4867 9.01892 21.8773V24.1229C9.01892 26.5135 9.23624 28.904 9.23624 28.904C9.23624 28.904 9.48979 30.9324 10.3229 31.8379C11.4095 32.997 12.7858 32.9607 13.4378 33.1056C15.6835 33.3229 23.0362 33.3954 23.0362 33.3954C23.0362 33.3954 28.9764 33.3954 32.9244 33.1056C33.4677 33.0332 34.663 33.0332 35.7496 31.8741C36.5827 30.9686 36.8 28.9403 36.8 28.9403C36.8 28.9403 37.0173 26.5497 37.0173 24.1592V21.9135C37.0173 19.5229 36.8 17.1324 36.8 17.1324ZM20.1024 26.8395V18.5812L27.7087 22.7103L20.1024 26.8395Z" fill="white"/>
<path d="M34.3008 46H11.6992C5.25197 46 0 40.748 0 34.2646V11.6992C0 5.25197 5.25197 0 11.6992 0H34.3008C40.748 0 46 5.25197 46 11.663V34.2646C46 40.748 40.748 46 34.3008 46ZM11.6992 0.724409C5.65039 0.724409 0.724409 5.65039 0.724409 11.6992V34.3008C0.724409 40.3496 5.65039 45.3118 11.6992 45.3118H34.3008C40.3496 45.3118 45.2756 40.3858 45.2756 34.3008V11.6992C45.2756 5.65039 40.3496 0.76063 34.3008 0.76063H11.6992V0.724409Z" fill="black"/>
<path d="M33.5039 43.8269H12.4961C6.88188 43.8269 2.17322 39.082 2.17322 33.4678V12.46C2.17322 6.882 6.88188 2.17334 12.4961 2.17334H33.4315C33.6488 2.17334 33.7937 2.31822 33.7937 2.53554C33.7937 2.75287 33.6488 2.89775 33.4315 2.89775H12.4961C7.2803 2.89775 2.89763 7.28043 2.89763 12.46V33.4678C2.89763 38.6836 7.31652 43.1025 12.4961 43.1025H33.5039C38.7197 43.1025 43.1023 38.6836 43.1023 33.4678V23.3623C43.1023 23.145 43.2472 23.0001 43.4646 23.0001C43.6819 23.0001 43.8268 23.145 43.8268 23.3623V33.504C43.8268 39.082 39.1181 43.8269 33.5039 43.8269Z" fill="black"/>
<path d="M40.4583 5.86767C40.3496 5.86767 40.2772 5.83145 40.2047 5.75901C38.3575 3.91177 35.8945 2.86137 33.3953 2.86137C33.178 2.86137 33.0331 2.71649 33.0331 2.49917C33.0331 2.28184 33.178 2.13696 33.3953 2.13696C36.0756 2.13696 38.7559 3.2598 40.7118 5.2157C40.8567 5.36058 40.8567 5.57791 40.7118 5.72279C40.6756 5.83145 40.5669 5.86767 40.4583 5.86767Z" fill="black"/>
<path d="M43.4646 21.189C43.2472 21.189 43.1024 21.0442 43.1024 20.8268V15.4662C43.1024 15.2489 43.2472 15.104 43.4646 15.104C43.6819 15.104 43.8268 15.2489 43.8268 15.4662V20.8268C43.8268 21.0442 43.6819 21.189 43.4646 21.189Z" fill="black"/>
<path d="M20.0661 27.2015C19.9937 27.2015 19.9212 27.2015 19.885 27.1652C19.7764 27.0928 19.7039 26.9841 19.7039 26.8393V18.581C19.7039 18.4361 19.7764 18.3275 19.885 18.255C19.9937 18.1826 20.1386 18.1826 20.2472 18.255L23.1811 19.8487C23.3622 19.9574 23.4346 20.1747 23.326 20.3558C23.2173 20.5369 23 20.6093 22.8189 20.5007L20.4283 19.1967V26.2597L27.5275 22.4204C27.7086 22.3117 27.926 22.3841 28.0346 22.5652C28.1433 22.7464 28.0708 22.9637 27.8897 23.0723L20.2472 27.1652C20.1748 27.2015 20.1386 27.2015 20.0661 27.2015Z" fill="black"/>
<path d="M22.9638 33.7574C22.674 33.7574 15.5748 33.685 13.3291 33.4676C13.1843 33.4314 13.0756 33.4314 12.9307 33.3952C12.2063 33.2865 10.9748 33.1416 9.99686 32.0913C9.09135 31.1133 8.87403 29.0487 8.83781 28.9763C8.83781 28.9401 8.62048 26.5495 8.62048 24.159V21.9133C8.62048 19.559 8.83781 17.1322 8.83781 17.096C8.83781 16.9873 9.09135 14.9227 10.0331 13.9448C11.1197 12.7495 12.315 12.6409 12.9307 12.5684H13.0394C16.9874 12.2787 22.8914 12.2424 22.9638 12.2424C23.0362 12.2424 28.9764 12.2787 32.8882 12.5684H33.0331C33.685 12.6409 34.8441 12.7495 35.9307 13.9448C36.8362 14.9227 37.0898 16.9873 37.0898 17.096C37.0898 17.1322 37.3433 19.559 37.3433 21.9133V24.159C37.3433 26.5495 37.0898 28.9401 37.0898 28.9763C37.0898 29.085 36.8 31.1495 35.8945 32.1275C34.8441 33.2865 33.6488 33.3952 33.0331 33.4676C32.9606 33.4676 32.9244 33.4676 32.852 33.5038C28.9764 33.7212 23.0362 33.7574 22.9638 33.7574ZM23 12.9306C22.9276 12.9306 17.0599 12.9668 13.148 13.2566H13.0394C12.4599 13.329 11.4819 13.4377 10.5764 14.4157C9.96064 15.0676 9.63466 16.5889 9.56222 17.1322C9.56222 17.1322 9.34489 19.5227 9.34489 21.8409V24.0865C9.34489 26.4409 9.56222 28.7952 9.56222 28.8314C9.56222 28.8314 9.77954 30.7511 10.5039 31.5479C11.3008 32.4172 12.3512 32.5621 13.0032 32.6346C13.148 32.6708 13.2929 32.6708 13.4016 32.707C15.5748 32.9243 22.7827 32.9968 22.9276 32.9968C23.0725 32.9968 28.9039 32.9968 32.7795 32.707C32.8158 32.707 32.8882 32.707 32.9606 32.6708C33.5402 32.5983 34.4819 32.5259 35.3512 31.5479C36.1118 30.7511 36.3654 28.8314 36.3654 28.8314C36.3654 28.8314 36.6189 26.4409 36.6189 24.1227V21.9133C36.6189 19.559 36.4016 17.2046 36.3654 17.1684C36.3654 17.1684 36.148 15.2487 35.3874 14.4519C34.4819 13.4739 33.504 13.3653 32.9244 13.329H32.7795C28.9402 13.0031 23.0362 12.9306 23 12.9306Z" fill="black"/>
</g>
<defs>
<clipPath id="clip0_11_153">
<rect width="46" height="46" fill="white"/>
</clipPath>
</defs>
</svg>
